<svg version="1.1" id="Layer_1" xmlns="http://www.w3.org/2000/svg" xmlns:xlink="http://www.w3.org/1999/xlink" x="0px" y="0px"
	 width="100%" viewBox="0 0 1500 862" enable-background="new 0 0 1500 862" xml:space="preserve">
<path fill="#FFFFFF" opacity="1.000000" stroke="none" 
	d="
M859.000000,863.000000 
	C574.166687,863.000000 289.833344,862.991394 5.500033,863.093262 
	C1.750862,863.094604 0.905430,862.249146 0.906773,858.499939 
	C1.008615,574.166687 1.008615,289.833344 0.906773,5.500033 
	C0.905430,1.750863 1.750968,0.906413 5.500018,0.907151 
	C502.500000,1.004943 999.500000,1.004943 1496.500000,0.907151 
	C1500.249023,0.906413 1501.094604,1.750862 1501.093262,5.500033 
	C1500.991455,289.833344 1500.991455,574.166687 1501.093262,858.499939 
	C1501.094604,862.249146 1500.249268,863.095398 1496.500000,863.093567 
	C1284.166626,862.988525 1071.833374,863.000000 859.000000,863.000000 
z"/>
<path fill="#030303" opacity="1.000000" stroke="none" 
	d="
M745.000000,176.979614 
	C717.004456,176.979614 689.497009,177.471283 662.017578,176.805252 
	C643.957336,176.367538 632.487427,190.859375 632.594055,205.993927 
	C633.130371,282.144501 632.843079,358.300873 632.837585,434.455231 
	C632.836365,450.920807 643.719666,462.104736 660.235413,462.141235 
	C702.228455,462.234039 744.221863,462.230255 786.214905,462.141632 
	C802.860901,462.106476 813.813110,450.759857 813.794006,433.983612 
	C813.785278,426.318176 813.708191,418.651611 813.814697,410.987671 
	C813.922852,403.210571 819.517639,397.714874 827.048279,397.767792 
	C834.521606,397.820312 840.106323,403.410889 840.042786,411.224304 
	C839.954773,422.046509 841.235046,432.981476 839.481750,443.671753 
	C835.040527,470.750732 814.076904,488.501831 786.087830,488.700562 
	C744.263428,488.997559 702.433716,488.999573 660.609192,488.708496 
	C628.543762,488.485352 606.247559,465.535889 606.241455,433.462036 
	C606.226929,357.141052 606.210449,280.820068 606.251953,204.499115 
	C606.266357,178.056900 623.143921,157.140320 648.969055,151.618484 
	C652.998840,150.756882 657.237671,150.592316 661.380676,150.585159 
	C702.707214,150.513641 744.034424,150.413788 785.360352,150.588074 
	C813.848511,150.708206 834.795105,167.989868 839.441284,195.335739 
	C841.172729,205.526367 840.326172,215.970627 839.836121,226.267380 
	C839.536560,232.560837 832.769287,237.381882 826.299377,237.026062 
	C819.585754,236.656815 814.106812,231.574554 813.874695,225.003799 
	C813.627869,218.013474 813.808411,211.008255 813.792480,204.009552 
	C813.758179,188.943405 802.565125,177.282944 787.490662,177.038849 
	C773.497131,176.812241 759.497131,176.983521 745.000000,176.979614 
z"/>
<path fill="#030303" opacity="1.000000" stroke="none" 
	d="
M722.366699,297.351013 
	C714.966248,303.577179 707.805725,309.536499 700.716003,315.578918 
	C696.383789,319.271240 696.371704,321.470123 700.742126,325.169128 
	C710.645264,333.550812 720.594482,341.878571 730.576721,350.165955 
	C735.372131,354.147217 737.632568,359.036469 735.858337,365.166840 
	C733.393921,373.681732 722.694336,377.544525 715.663757,371.946838 
	C703.438599,362.213440 691.217590,352.380890 679.874329,341.659363 
	C667.558899,330.018921 667.710815,310.354736 680.107788,298.768372 
	C691.392334,288.221649 703.525208,278.560669 715.547852,268.835388 
	C720.858826,264.539215 728.848328,265.727997 733.115417,270.646820 
	C737.724792,275.960175 737.597107,283.544556 732.471313,288.671967 
	C729.424744,291.719360 725.929871,294.318512 722.366699,297.351013 
z"/>
<path fill="#030303" opacity="1.000000" stroke="none" 
	d="
M869.298828,354.287018 
	C862.711853,359.930695 856.444580,365.404846 850.055359,370.732666 
	C843.830139,375.923828 835.671387,375.534485 830.872925,369.984283 
	C825.810913,364.129211 826.296143,356.610474 832.662231,350.946808 
	C842.357849,342.321136 852.350281,334.029724 862.191589,325.567108 
	C867.295898,321.177948 867.250610,319.420776 862.063660,314.982910 
	C852.454407,306.761383 842.777649,298.617218 833.255615,290.295990 
	C825.778809,283.762085 825.524658,274.748627 832.431030,269.184265 
	C837.127319,265.400543 844.165344,265.104919 849.013794,269.159576 
	C860.500000,278.765289 872.113647,288.265991 883.011658,298.515350 
	C895.839111,310.579407 895.458923,330.306183 882.750366,342.597839 
	C878.571350,346.639709 873.972229,350.247284 869.298828,354.287018 
z"/>
<path fill="#030303" opacity="1.000000" stroke="none" 
	d="
M798.023438,253.788849 
	C808.532104,254.822296 813.647888,261.872620 810.946777,271.452850 
	C801.216614,305.963348 791.401062,340.449890 781.550171,374.926178 
	C779.214172,383.101837 771.471130,387.409149 763.751892,385.082672 
	C756.781738,382.981964 753.511169,375.925964 755.836182,367.693085 
	C765.581055,333.187103 775.345886,298.686676 785.157166,264.199554 
	C786.921814,257.996857 790.921082,254.243240 798.023438,253.788849 
z"/>
<path fill="#040404" opacity="1.000000" stroke="none" 
	d="
M457.805328,522.814453 
	C467.936218,521.079529 476.696289,523.562622 484.759186,528.878296 
	C489.655060,532.105957 490.337372,534.756287 487.723541,539.227295 
	C484.085754,545.449829 480.387756,547.076904 475.269409,544.040588 
	C470.187561,541.026001 465.016541,539.469421 459.151520,540.758179 
	C447.635406,543.288513 440.875916,554.774719 444.340149,565.944946 
	C447.904968,577.439331 460.850494,584.239685 471.364288,579.830872 
	C476.091553,577.848572 473.040222,573.369873 473.530334,570.079834 
	C474.004791,566.895142 471.129639,568.355164 469.633179,568.070740 
	C468.669037,567.887573 467.641754,568.045105 466.642975,568.034302 
	C460.521484,567.968079 459.146881,566.798645 458.974884,561.520264 
	C458.763336,555.028748 459.841217,553.470032 465.908112,553.161377 
	C471.885529,552.857239 477.901825,552.863525 483.880127,553.158081 
	C489.853607,553.452393 491.485626,555.235229 491.626495,561.262573 
	C491.797638,568.583801 491.693481,575.912415 491.650299,583.237488 
	C491.622711,587.918396 488.862152,591.054749 485.172150,593.243591 
	C459.798950,608.294373 429.140747,593.179260 426.000671,564.992004 
	C423.610260,543.534058 436.999115,526.026184 457.805328,522.814453 
z"/>
<path fill="#030303" opacity="1.000000" stroke="none" 
	d="
M778.722290,599.374878 
	C775.998169,617.348450 753.587463,628.822388 734.064941,615.051941 
	C730.201660,612.326965 729.817444,609.111084 732.476990,605.154846 
	C736.104492,599.759094 738.504211,598.921814 742.962341,601.532593 
	C744.967285,602.706665 746.943604,603.799927 749.322388,604.221130 
	C757.365662,605.645447 761.767761,601.586060 761.169861,592.684631 
	C754.467957,596.805237 747.543274,597.837463 740.521973,594.084961 
	C733.245789,590.196167 728.614014,584.052063 726.612732,576.096802 
	C722.537292,559.896851 737.057373,542.636292 752.709167,544.861145 
	C755.815552,545.302734 758.066040,547.588196 760.732117,548.422791 
	C762.855957,549.087646 763.744995,544.681213 766.938721,544.476135 
	C777.366394,543.806458 779.192749,546.083252 779.042419,554.010132 
	C778.758240,568.983826 778.860413,583.964783 778.722290,599.374878 
z"/>
<path fill="#030303" opacity="1.000000" stroke="none" 
	d="
M1008.895508,575.205200 
	C1006.138916,568.392090 1003.396118,561.987244 1000.891541,555.490479 
	C998.835266,550.156738 1000.363831,547.152649 1005.814941,545.063354 
	C1011.840088,542.753967 1014.933105,543.810181 1017.079407,549.104126 
	C1019.303467,554.589905 1021.384277,560.133728 1023.797241,566.346069 
	C1026.528076,561.678955 1027.669434,557.093201 1029.230713,552.704956 
	C1030.856201,548.136169 1033.418213,544.451721 1038.642822,544.498169 
	C1043.844604,544.544373 1046.399780,548.216797 1047.999512,552.813171 
	C1049.560059,557.297058 1050.810303,561.931641 1053.481445,566.558838 
	C1055.618896,560.796631 1057.469849,555.511047 1059.536865,550.311279 
	C1061.957764,544.221436 1065.285400,542.697327 1070.750488,544.912476 
	C1077.307007,547.570007 1078.593384,550.453735 1075.972046,556.940491 
	C1071.250854,568.623535 1066.546021,580.314209 1061.682617,591.938293 
	C1060.215332,595.445374 1057.805176,598.106201 1053.514160,598.213257 
	C1049.209717,598.320679 1046.670898,595.851440 1045.148682,592.292969 
	C1042.936890,587.122314 1041.029541,581.821411 1038.609863,575.590881 
	C1036.552734,581.054016 1034.837524,585.674255 1033.073120,590.275696 
	C1031.464111,594.471497 1029.430054,598.233521 1024.085815,598.203430 
	C1018.806519,598.173706 1016.701599,594.528992 1015.030518,590.311035 
	C1013.076172,585.378052 1011.022766,580.484314 1008.895508,575.205200 
z"/>
<path fill="#030303" opacity="1.000000" stroke="none" 
	d="
M660.266602,568.570679 
	C660.478760,583.258545 651.745850,595.328857 639.662659,597.502136 
	C635.073853,598.327515 630.648376,597.855286 626.782104,595.132324 
	C625.156372,593.987305 624.524292,593.985107 622.983948,595.480042 
	C619.126587,599.223877 614.254944,598.428833 609.853088,596.795654 
	C606.159729,595.425232 606.893616,591.601013 606.887878,588.505127 
	C606.850647,568.529968 606.850830,548.554626 606.876709,528.579346 
	C606.886108,521.302734 608.551453,519.595276 615.479980,519.490784 
	C622.592651,519.383484 624.563660,521.307312 624.648254,528.693726 
	C624.721802,535.113525 624.663574,541.534851 624.663574,548.178101 
	C641.478882,540.425110 657.701904,549.777771 660.266602,568.570679 
z"/>
<path fill="#050505" opacity="1.000000" stroke="none" 
	d="
M871.001160,523.512939 
	C879.654724,523.546753 887.812378,523.439087 895.960999,523.661621 
	C901.897705,523.823730 903.430420,525.784607 903.524963,532.300964 
	C903.624084,539.130981 902.096558,541.212646 895.924316,541.383850 
	C886.778259,541.637634 877.608032,541.827332 868.475281,541.425781 
	C863.750549,541.218018 863.269897,543.017029 863.102234,547.077515 
	C862.907043,551.804504 865.034180,552.071777 868.687927,551.918579 
	C874.169250,551.688843 879.671875,551.778748 885.159363,551.940857 
	C890.442810,552.096924 892.041077,554.045166 892.235413,560.002075 
	C892.458923,566.852539 891.033264,569.321838 885.770630,569.652039 
	C879.469788,570.047424 873.130127,570.017578 866.813599,569.880859 
	C864.010376,569.820251 863.102112,570.599915 863.207520,573.469055 
	C863.421387,579.285339 863.370483,585.119141 863.202515,590.939209 
	C863.055359,596.039062 861.174622,597.627625 855.540466,597.969238 
	C849.126160,598.358154 846.214539,596.596924 845.465942,591.744934 
	C845.239319,590.276184 845.257812,588.761230 845.256653,587.267334 
	C845.242554,569.293884 845.241760,551.320374 845.246399,533.346924 
	C845.248352,525.933594 846.811768,524.051880 854.032410,523.672180 
	C859.509705,523.384155 865.010803,523.549377 871.001160,523.512939 
z"/>
<path fill="#030303" opacity="1.000000" stroke="none" 
	d="
M672.336365,553.363098 
	C681.599670,543.669006 687.770142,542.615540 700.381714,548.640137 
	C701.879456,549.355591 701.870789,548.478943 702.492310,547.828918 
	C705.640625,544.536499 712.140381,543.403259 716.238770,545.354248 
	C718.486389,546.424194 719.263062,548.410828 719.271851,550.671631 
	C719.325012,564.305725 719.341919,577.940125 719.289001,591.574097 
	C719.278687,594.215271 718.453369,596.594177 715.395813,597.177002 
	C710.972107,598.020386 706.379700,598.979614 702.923950,595.004272 
	C701.704956,593.601990 701.397949,593.464905 699.805847,594.587891 
	C693.277649,599.192566 686.354187,598.867126 679.631226,595.072144 
	C666.919983,587.896790 658.913818,569.350159 672.336365,553.363098 
z"/>
<path fill="#030303" opacity="1.000000" stroke="none" 
	d="
M552.128296,587.821045 
	C551.890808,591.820374 552.936890,595.866699 547.932556,597.252136 
	C542.153442,598.852051 537.429260,597.597961 534.379395,593.414795 
	C519.709473,605.369751 500.753082,591.463440 498.270966,574.523804 
	C495.986450,558.932739 509.721985,543.515137 524.349121,544.833679 
	C527.804443,545.145081 530.434814,547.334106 533.431946,548.404297 
	C535.737488,549.227539 537.302979,544.841553 540.769653,544.574158 
	C549.624512,543.891235 552.107666,545.704651 552.123352,554.361694 
	C552.143250,565.356567 552.128296,576.351379 552.128296,587.821045 
z"/>
<path fill="#030303" opacity="1.000000" stroke="none" 
	d="
M789.235840,585.715942 
	C783.765381,574.455505 783.795166,563.652100 791.340881,553.907410 
	C799.273682,543.662842 810.494873,541.910645 822.451599,544.362793 
	C832.081726,546.337891 838.735901,555.168457 838.846558,565.011902 
	C838.930115,572.442932 834.645142,576.966919 827.300232,577.049133 
	C820.804016,577.121887 814.306213,577.040527 807.809631,577.093933 
	C806.912781,577.101318 805.684692,576.524780 805.150879,577.690491 
	C804.541748,579.020935 805.590271,579.930664 806.467957,580.624695 
	C812.273804,585.215759 818.592712,584.161560 824.967896,582.171692 
	C830.789551,580.354492 833.749573,581.863159 835.574341,587.588135 
	C836.822083,591.502380 835.582275,594.372986 832.043457,596.401001 
	C818.778198,604.003174 797.495728,598.843811 789.235840,585.715942 
z"/>
<path fill="#040404" opacity="1.000000" stroke="none" 
	d="
M942.185181,576.349854 
	C939.465759,555.606995 954.869934,544.343323 968.049500,543.284668 
	C982.328491,542.137634 995.588806,552.879517 997.670044,567.824524 
	C999.594360,581.642639 989.643005,595.610413 976.064636,598.149902 
	C960.090454,601.137512 947.257446,593.023132 942.185181,576.349854 
z"/>
<path fill="#030303" opacity="1.000000" stroke="none" 
	d="
M910.057129,562.999939 
	C910.057373,551.357117 910.042847,540.214294 910.062866,529.071411 
	C910.076843,521.280762 912.035217,519.174805 919.106812,519.234497 
	C926.064087,519.293213 927.945618,521.418030 927.952637,529.332336 
	C927.966003,544.466675 927.998657,559.601318 927.922852,574.735229 
	C927.904480,578.394592 927.994751,581.563782 933.053284,581.070190 
	C934.625183,580.916809 936.079712,581.863220 936.699707,583.285461 
	C938.441650,587.281250 938.481750,591.520020 936.757751,595.419128 
	C935.265930,598.792969 931.725952,597.948792 928.796692,598.047668 
	C928.464966,598.058899 928.131836,598.032166 927.799377,598.022156 
	C914.916687,597.635315 910.563049,593.407043 910.084900,580.461670 
	C909.876343,574.815125 910.054504,569.154236 910.057129,562.999939 
z"/>
<path fill="#050505" opacity="1.000000" stroke="none" 
	d="
M560.274963,551.614685 
	C560.669861,547.989075 561.634155,545.224854 565.435791,544.925903 
	C570.334839,544.540588 575.566711,543.281799 578.412598,549.340820 
	C583.538757,544.707520 589.176575,542.643494 595.912415,544.888794 
	C600.635803,546.463318 602.165466,549.592407 600.799133,555.188843 
	C599.368164,561.049988 596.449280,563.274170 591.519958,562.339661 
	C589.409058,561.939514 587.213867,561.191162 585.160706,561.443909 
	C580.944031,561.962891 578.139221,564.254333 578.154114,568.974976 
	C578.176208,575.960144 578.213623,582.945984 578.136658,589.930420 
	C578.066833,596.269348 576.014648,598.024414 568.995972,598.015747 
	C562.513123,598.007751 560.273438,596.028931 560.249084,589.971924 
	C560.198364,577.332336 560.244812,564.692261 560.274963,551.614685 
z"/>
<path fill="#030303" opacity="1.000000" stroke="none" 
	d="
M703.271301,222.005920 
	C697.763062,218.167633 695.770386,213.165131 697.301697,207.072479 
	C698.732971,201.377838 703.633545,197.770096 710.413696,197.594788 
	C719.208374,197.367371 728.025635,197.312332 736.812195,197.682037 
	C744.270630,197.995880 749.445312,203.396500 749.731018,210.265488 
	C750.000916,216.754395 745.206238,222.959900 738.158875,223.526093 
	C727.765015,224.361084 717.288818,224.598984 706.876770,223.265976 
	C705.762939,223.123398 704.704773,222.546555 703.271301,222.005920 
z"/>
<path fill="#040404" opacity="1.000000" stroke="none" 
	d="
M716.512939,417.323364 
	C723.245483,414.512817 728.985291,415.405182 732.838440,419.610687 
	C736.590637,423.705872 737.487854,429.656189 735.068237,434.397736 
	C732.538025,439.355927 727.730591,442.209259 722.553223,441.825592 
	C716.784241,441.398071 712.199402,437.753174 710.479492,432.227081 
	C708.818909,426.891479 710.716431,422.010193 716.512939,417.323364 
z"/>
<path fill="#1C1C1C" opacity="1.000000" stroke="none" 
	d="
M605.877014,690.705139 
	C607.791443,683.743591 609.584167,677.173950 611.505432,670.642090 
	C611.831177,669.534546 611.549316,667.743774 613.570251,667.743164 
	C615.534424,667.742554 615.401428,669.503357 615.727661,670.606079 
	C618.269226,679.196228 620.688538,687.822571 623.484985,697.627930 
	C625.832275,689.076965 627.889099,681.602234 629.933105,674.123962 
	C630.371094,672.521851 630.748108,670.903198 631.181091,669.299683 
	C631.482727,668.182556 632.283386,667.481201 633.379150,667.848694 
	C634.389648,668.187622 634.012451,669.220398 633.801636,669.989014 
	C631.033997,680.079346 628.262207,690.168701 625.451904,700.247253 
	C625.161438,701.289246 625.083740,702.730957 623.371033,702.486450 
	C621.794434,702.261536 621.949890,700.834595 621.645264,699.784851 
	C619.423462,692.130432 617.221313,684.470215 615.041138,676.803833 
	C614.680420,675.535400 614.542542,674.191223 613.266296,672.980896 
	C610.830078,681.755859 608.451294,690.364075 606.041260,698.963562 
	C605.658325,700.330139 605.788574,702.336304 603.895996,702.456543 
	C601.768127,702.591614 602.063965,700.474548 601.693787,699.140198 
	C599.162781,690.017761 596.602234,680.901978 594.257019,671.731445 
	C593.968811,670.604370 592.269226,668.640625 594.375244,667.942200 
	C596.681091,667.177551 596.354126,669.809509 596.671448,670.937500 
	C599.009888,679.249756 601.139709,687.620789 603.395447,696.202271 
	C605.649902,695.058289 604.723633,692.588867 605.877014,690.705139 
z"/>
<path fill="#1C1C1C" opacity="1.000000" stroke="none" 
	d="
M846.485657,714.099731 
	C842.336426,713.784973 839.111084,712.407349 838.134216,708.493225 
	C837.338135,705.303772 838.610046,702.535217 841.728210,701.054016 
	C843.036865,700.432373 842.332336,699.764954 842.415222,698.863953 
	C842.844666,694.196777 842.055481,690.054443 840.325500,685.550537 
	C838.517517,680.843384 842.751892,676.814087 848.603210,676.132690 
	C849.261963,676.055969 849.936707,676.014709 850.596191,676.063232 
	C854.194946,676.327820 857.791138,676.625427 861.792969,677.254211 
	C856.860718,678.054504 857.754883,680.960388 858.181702,684.281372 
	C858.744324,688.657593 856.340576,691.561890 851.933655,692.485779 
	C850.483032,692.789978 848.961487,692.737671 847.483765,692.934326 
	C845.417480,693.209412 844.023987,694.386597 844.081482,696.509277 
	C844.134583,698.468628 845.923462,698.674866 847.392578,698.789001 
	C849.547546,698.956299 851.724121,698.829590 853.882935,698.965271 
	C857.498901,699.192444 860.411255,700.512146 861.083008,704.514648 
	C861.769043,708.601807 859.585510,711.188049 856.178589,712.862793 
	C853.254089,714.300476 850.048828,714.231445 846.485657,714.099731 
z"/>
<path fill="#1C1C1C" opacity="1.000000" stroke="none" 
	d="
M568.344604,700.488403 
	C566.325745,694.192383 564.459290,688.233765 562.592834,682.275085 
	C562.243286,682.224487 561.893799,682.173828 561.544250,682.123230 
	C559.734619,687.461426 557.971985,692.816284 556.086975,698.127686 
	C555.518921,699.728333 555.800110,702.341431 553.509216,702.420166 
	C551.047791,702.504700 551.424683,699.852417 550.950684,698.257812 
	C549.108948,692.062012 547.376770,685.833313 545.649841,679.604126 
	C545.383728,678.644348 544.090576,677.286255 545.948303,676.760864 
	C547.400391,676.350098 547.753540,677.670959 548.077881,678.885254 
	C549.745483,685.127258 551.488159,691.349121 553.467590,698.532593 
	C555.752380,691.731873 557.769836,685.752014 559.765930,679.765015 
	C560.173950,678.541077 560.121155,676.851624 561.809021,676.717529 
	C563.940796,676.548279 563.811340,678.502075 564.251099,679.853394 
	C566.123718,685.607544 567.997620,691.361206 570.303406,698.442810 
	C572.300354,691.026855 573.885010,685.012878 575.567383,679.026428 
	C575.836182,678.069946 575.691772,676.254089 577.487061,676.795898 
	C579.267151,677.333008 578.103088,678.855103 577.870239,679.749451 
	C576.117126,686.485168 574.210754,693.180969 572.355286,699.890076 
	C571.627869,702.520508 570.693970,704.269165 568.344604,700.488403 
z"/>
<path fill="#212121" opacity="1.000000" stroke="none" 
	d="
M801.989990,685.998169 
	C801.990173,680.509094 802.087158,675.516479 801.945679,670.530701 
	C801.884155,668.361145 802.571777,667.545715 804.752502,667.675842 
	C807.903992,667.863831 811.076294,667.729919 814.223328,667.958252 
	C818.318237,668.255249 821.844299,669.800781 822.795654,674.204163 
	C823.769592,678.712463 823.104309,683.069275 818.465637,685.330505 
	C815.801147,686.629395 816.190063,687.820129 817.430420,689.782104 
	C819.961060,693.785095 822.348389,697.878723 824.839172,702.008728 
	C822.410400,703.211731 821.686096,701.815186 820.916138,700.518127 
	C818.883240,697.093262 816.855591,693.665405 814.819336,690.242493 
	C813.976807,688.826111 813.252014,687.549438 811.189697,687.326111 
	C805.319153,686.690430 804.730408,687.100708 804.723877,693.109375 
	C804.721130,695.604248 804.707703,698.099243 804.719910,700.594055 
	C804.724487,701.522461 804.412354,702.315674 803.460083,702.443054 
	C801.947571,702.645325 802.010132,701.437805 802.004822,700.468872 
	C801.979248,695.811829 801.991272,691.154602 801.989990,685.998169 
z"/>
<path fill="#0F0F0F" opacity="1.000000" stroke="none" 
	d="
M887.136536,684.840149 
	C887.147583,689.259888 887.320068,693.261475 887.071350,697.236816 
	C886.963318,698.963623 888.450867,702.081482 885.859009,702.173645 
	C883.862061,702.244629 884.984070,699.132507 884.901062,697.482239 
	C884.709106,693.667358 884.848938,689.835999 884.842163,686.011353 
	C884.834778,681.844482 883.245300,678.896606 878.725281,678.386475 
	C874.144531,677.869446 870.939148,679.985657 869.760010,684.377380 
	C868.443665,689.279846 869.471008,694.309021 869.109741,699.264954 
	C869.027283,700.396851 869.904358,702.393188 867.834656,702.340210 
	C866.277710,702.300293 866.841187,700.510559 866.837036,699.462646 
	C866.796387,689.152832 866.798157,678.842773 866.833801,668.532898 
	C866.837463,667.468567 866.313721,665.684387 867.791809,665.608459 
	C869.870483,665.501648 868.909424,667.509521 869.120361,668.641418 
	C869.240112,669.284241 869.140991,669.967712 869.141724,670.632874 
	C869.149780,677.840637 869.149841,677.840576 876.022705,676.464783 
	C882.431274,675.181946 885.958496,677.706116 887.136536,684.840149 
z"/>
<path fill="#212121" opacity="1.000000" stroke="none" 
	d="
M924.987854,679.026611 
	C924.987854,678.365906 924.971558,678.197571 924.990173,678.033142 
	C925.371033,674.668762 923.471252,669.119690 925.912048,668.343384 
	C930.905334,666.755249 936.842224,666.720215 941.913269,669.453613 
	C945.059448,671.149597 946.321167,674.195496 946.118469,677.888977 
	C945.899292,681.882263 944.389099,684.953552 940.695190,686.714661 
	C938.076782,687.962891 935.208130,688.438293 932.409973,688.069275 
	C928.217896,687.516479 927.300842,689.418579 927.674438,693.073425 
	C927.910217,695.380188 927.713989,697.730896 927.716370,700.061890 
	C927.717590,701.272400 927.697510,702.619995 926.012085,702.416687 
	C924.607788,702.247375 925.013123,700.900635 925.008301,700.000305 
	C924.971985,693.173950 924.988098,686.347412 924.987854,679.026611 
z"/>
<path fill="#272727" opacity="1.000000" stroke="none" 
	d="
M981.707886,692.949524 
	C981.707886,696.358093 981.707886,699.288574 981.707886,702.219055 
	C979.336060,700.192444 977.872375,699.514160 975.357483,701.666443 
	C973.393311,703.347473 970.428406,703.312866 967.689148,702.698608 
	C964.621033,702.010681 962.564209,700.407471 962.002075,697.227051 
	C961.408447,693.868530 962.802246,691.413940 965.633972,689.693237 
	C968.289062,688.079956 971.306824,688.059937 974.259460,687.600403 
	C975.984314,687.332092 979.074951,688.912842 979.009033,685.049683 
	C978.952454,681.737976 977.914551,679.189880 974.234192,678.527283 
	C971.847839,678.097534 969.627686,678.852905 967.391846,679.439575 
	C966.483948,679.677856 965.422607,680.558044 965.009033,679.075195 
	C964.642944,677.762512 966.020996,677.456909 966.852234,677.205139 
	C974.548889,674.873779 982.381592,675.622986 981.724060,686.981750 
	C981.618469,688.805847 981.708435,690.641235 981.707886,692.949524 
z"/>
<path fill="#1C1C1C" opacity="1.000000" stroke="none" 
	d="
M640.617554,701.662415 
	C635.860413,696.052063 637.203186,691.096313 643.637024,688.714783 
	C645.730713,687.939880 647.920349,688.154480 649.996765,687.658691 
	C651.759827,687.237793 654.863098,688.886658 654.845825,685.184509 
	C654.830933,681.986267 653.863281,679.261841 650.164612,678.539246 
	C647.608215,678.039795 645.236572,678.784058 642.869446,679.552368 
	C642.086365,679.806458 641.282837,680.323059 640.809082,679.202148 
	C640.320374,678.045837 641.390686,677.826416 642.039062,677.465942 
	C649.921997,673.082642 657.255249,677.413391 657.266479,686.445435 
	C657.273010,691.723206 657.267578,697.000977 657.267578,702.370300 
	C654.367249,702.317749 655.594849,699.984802 654.491638,699.061218 
	C650.712646,703.221130 646.089478,703.867981 640.617554,701.662415 
z"/>
<path fill="#212121" opacity="1.000000" stroke="none" 
	d="
M719.937256,702.475342 
	C706.402588,704.131958 699.546692,695.647888 704.045593,683.406738 
	C705.974976,678.157043 710.948364,675.231812 716.260193,676.222473 
	C721.099731,677.125061 724.044495,681.190857 724.232544,686.830200 
	C724.308167,689.096985 723.860535,690.140869 721.288879,690.018677 
	C716.974487,689.813843 712.639771,690.068298 708.320557,689.922852 
	C705.947571,689.842957 705.555542,690.784485 705.878601,692.893372 
	C706.655945,697.967041 710.573792,701.036011 716.247498,700.707397 
	C717.566040,700.630981 718.879456,700.056580 720.174500,700.121887 
	C721.134338,700.170410 722.469971,698.201721 722.974915,700.209351 
	C723.462646,702.148865 721.441833,701.899780 719.937256,702.475342 
z"/>
<path fill="#1C1C1C" opacity="1.000000" stroke="none" 
	d="
M1024.928101,689.952087 
	C1023.120117,689.952087 1021.721619,689.686401 1020.477417,690.011353 
	C1018.349670,690.567200 1014.707520,688.222839 1014.289551,691.504211 
	C1013.827332,695.133179 1015.753418,698.537170 1019.764160,700.041077 
	C1023.713867,701.522034 1027.562500,700.188599 1031.742920,699.408997 
	C1027.720825,705.459717 1016.188293,703.862915 1012.997742,697.140076 
	C1010.584717,692.055542 1010.805542,686.756775 1013.231323,681.731934 
	C1015.379517,677.282227 1020.754822,675.132935 1025.502930,676.438171 
	C1029.945068,677.659363 1033.139404,682.700073 1032.827881,687.682556 
	C1032.719116,689.421265 1032.029297,690.025208 1030.390503,689.962036 
	C1028.731689,689.898071 1027.068359,689.950562 1024.928101,689.952087 
z"/>
<path fill="#1C1C1C" opacity="1.000000" stroke="none" 
	d="
M761.251587,698.648438 
	C758.903442,695.111450 758.625305,691.493958 758.845520,687.784973 
	C759.253601,680.914062 763.209412,676.578186 769.469971,676.100708 
	C775.848145,675.614258 780.202454,679.161682 781.487671,686.150574 
	C782.465393,691.467834 781.861206,696.623230 777.601562,700.387329 
	C774.240967,703.356934 770.062500,703.476807 765.839661,702.123840 
	C764.017517,701.539978 762.637817,700.412109 761.251587,698.648438 
z"/>
<path fill="#1C1C1C" opacity="1.000000" stroke="none" 
	d="
M527.591919,676.291870 
	C533.298950,675.613525 537.817810,677.106506 539.891235,682.276978 
	C542.213074,688.067017 542.444519,694.146240 538.256897,699.294067 
	C534.937561,703.374451 530.255676,703.614502 525.489502,702.100891 
	C521.000061,700.675232 518.285156,695.925781 518.206604,689.636597 
	C518.119263,682.647949 520.809448,678.676025 527.591919,676.291870 
z"/>
<path fill="#272727" opacity="1.000000" stroke="none" 
	d="
M674.763855,676.111694 
	C675.679199,676.218567 676.234314,676.167542 676.657532,676.379639 
	C678.034119,677.069214 680.947815,676.337219 680.623230,678.329163 
	C680.228394,680.752258 677.904846,678.603394 676.446350,678.751953 
	C675.649597,678.833130 674.812073,678.386108 673.990601,678.376709 
	C670.957031,678.341980 667.464661,678.205261 666.563782,681.839417 
	C665.650879,685.521973 668.993896,686.390869 671.625305,687.434448 
	C673.785034,688.291016 675.999207,689.036926 678.084229,690.048340 
	C680.701904,691.318237 682.229309,693.470398 681.823059,696.474915 
	C681.437317,699.326965 679.834595,701.279297 676.958069,702.182739 
	C671.577942,703.872498 666.096680,703.069336 662.546143,699.180298 
	C665.539734,699.782410 667.635254,700.248291 669.747681,700.617615 
	C672.445435,701.089294 675.159302,700.975647 677.450623,699.390991 
	C679.946594,697.664734 679.725525,693.946960 676.927002,692.316467 
	C674.656189,690.993347 672.092163,690.139893 669.600464,689.237549 
	C666.231628,688.017578 663.452759,686.331360 663.908936,682.180176 
	C664.388062,677.819458 667.735535,676.737854 671.354736,676.166138 
	C672.331360,676.011841 673.346008,676.098389 674.763855,676.111694 
z"/>
<path fill="#050505" opacity="1.000000" stroke="none" 
	d="
M484.969971,676.033936 
	C484.970032,667.782593 484.970032,667.782593 492.705719,667.782715 
	C495.363953,667.782715 498.028900,667.673706 500.677185,667.835999 
	C501.773041,667.903198 503.888519,666.914062 503.758423,668.984497 
	C503.646301,670.768494 501.610291,669.874268 500.458099,669.923340 
	C497.307129,670.057434 494.146729,669.966797 490.990082,669.972107 
	C490.159637,669.973511 488.839508,669.670898 488.574493,670.065430 
	C485.880890,674.076050 487.841888,678.587646 487.470245,682.870728 
	C487.238556,685.540833 489.662292,684.658325 491.150513,684.806580 
	C495.075684,685.197571 499.143372,684.068176 504.376190,685.938660 
	C499.116699,687.658264 495.047516,686.964661 491.115906,686.872742 
	C487.986267,686.799561 487.020172,687.740967 487.315186,690.777100 
	C487.571075,693.410461 487.479095,696.095032 487.320190,698.743774 
	C487.243896,700.015198 488.292236,702.308411 485.966675,702.245850 
	C484.152985,702.197021 485.031097,700.095581 485.017181,698.956909 
	C484.925751,691.481689 484.970001,684.004883 484.969971,676.033936 
z"/>
<path fill="#212121" opacity="1.000000" stroke="none" 
	d="
M1002.645264,676.137573 
	C1004.020874,676.418030 1004.984680,676.660767 1005.948792,676.902405 
	C1006.690613,677.088379 1007.073242,677.507935 1006.891602,678.315002 
	C1006.694153,679.192444 1006.000366,679.159607 1005.350342,679.123230 
	C1004.857239,679.095764 1004.366089,678.978516 1003.881165,678.869629 
	C999.499939,677.885742 995.427795,678.398254 992.871704,682.440918 
	C989.990784,686.997498 990.151855,692.002258 992.581726,696.670593 
	C994.384888,700.134827 997.827881,700.921814 1001.560242,700.683533 
	C1003.297974,700.572693 1004.961304,699.293091 1006.814209,700.277344 
	C1003.024963,704.969971 993.338745,703.661987 990.175171,697.839233 
	C985.600220,689.418823 988.450195,675.135803 1002.645264,676.137573 
z"/>
<path fill="#313131" opacity="1.000000" stroke="none" 
	d="
M744.559448,698.984192 
	C743.472229,693.467834 744.083313,688.298035 744.013489,683.150940 
	C743.977966,680.525635 744.145630,678.099182 739.897095,678.238037 
	C744.271057,677.007874 744.368286,673.400330 745.214111,670.240173 
	C745.516174,670.475342 754.646606,677.583984 754.648682,677.588562 
	C754.243835,679.197021 752.856750,679.021851 751.835327,678.814819 
	C746.921448,677.819092 746.340027,680.483948 746.699341,684.394287 
	C746.942139,687.036743 746.741211,689.719666 746.746155,692.384460 
	C746.760925,700.302124 747.130676,700.697937 754.600952,700.825500 
	C752.085144,704.338379 748.008484,703.739380 744.559448,698.984192 
z"/>
<path fill="#272727" opacity="1.000000" stroke="none" 
	d="
M690.980652,687.012207 
	C690.980652,689.159729 690.978882,690.821411 690.980774,692.483032 
	C690.989624,700.230591 691.418457,700.691711 699.252930,700.914734 
	C698.002197,703.702454 695.729492,703.096130 693.843384,702.839600 
	C691.208557,702.481384 689.223145,701.192200 688.682007,698.252625 
	C687.739380,693.131836 688.255432,687.974976 688.311218,682.846375 
	C688.340698,680.138672 687.901978,678.410400 684.380188,678.191223 
	C688.533875,676.867737 689.189270,673.656189 689.159607,670.124329 
	C690.146545,670.575012 690.674805,670.712280 690.670410,670.829285 
	C690.508850,675.067200 691.653564,677.842896 696.742615,676.625000 
	C697.446472,676.456482 698.547913,676.370667 698.796387,677.439392 
	C699.062500,678.584290 698.091125,678.938477 697.296326,678.766113 
	C690.025146,677.189392 690.746948,682.043213 690.980652,687.012207 
z"/>
<path fill="#1C1C1C" opacity="1.000000" stroke="none" 
	d="
M898.086975,671.760254 
	C896.883362,679.674622 903.691162,675.053467 905.914307,677.163452 
	C906.121399,678.930237 904.892395,678.924866 904.024109,678.753723 
	C898.745972,677.713440 897.442932,680.186462 898.057678,684.943665 
	C898.395020,687.554626 898.111084,690.245117 898.119080,692.899719 
	C898.140808,700.049988 898.834839,700.757690 905.954407,700.920044 
	C904.302612,703.096375 903.344910,703.383911 900.558716,702.723999 
	C897.838867,702.079834 896.027039,700.527588 895.909668,697.661499 
	C895.726562,693.189392 895.714172,688.708313 895.719604,684.231140 
	C895.723145,681.342041 896.421936,678.150940 891.359802,677.783020 
	C896.639465,677.505310 895.563049,673.445496 896.718384,670.866455 
	C896.799988,670.684143 897.322449,670.550049 897.559937,670.630249 
	C897.781982,670.705261 897.897583,671.095337 898.086975,671.760254 
z"/>
<path fill="#050505" opacity="1.000000" stroke="none" 
	d="
M955.403564,693.845581 
	C954.731873,696.969421 957.119202,701.044495 953.834167,701.916199 
	C952.529968,702.262329 953.123901,697.091614 953.065735,694.474243 
	C952.874451,685.868469 952.954285,677.255371 953.044861,668.646362 
	C953.055908,667.593994 952.072815,665.549866 954.298462,665.660706 
	C955.815186,665.736206 955.386902,667.446411 955.390137,668.534912 
	C955.414673,676.813660 955.403564,685.092529 955.403564,693.845581 
z"/>
<path fill="#030303" opacity="1.000000" stroke="none" 
	d="
M508.902649,699.389893 
	C508.902618,688.804443 508.881714,678.656738 508.935303,668.509521 
	C508.940643,667.498962 508.246399,665.777222 509.935425,665.666626 
	C511.722961,665.549561 511.166290,667.297302 511.170288,668.315979 
	C511.211365,678.796021 511.210175,689.276428 511.171722,699.756531 
	C511.167999,700.768372 511.704834,702.448242 509.820343,702.277100 
	C508.430939,702.151001 509.075867,700.713135 508.902649,699.389893 
z"/>
<path fill="#313131" opacity="1.000000" stroke="none" 
	d="
M830.223267,691.956482 
	C830.223816,687.335266 830.228088,683.204407 830.222778,679.073486 
	C830.221252,677.879272 830.188416,676.568481 831.882507,676.707214 
	C833.309631,676.824158 833.007385,678.095154 833.010132,679.016357 
	C833.031006,686.121460 833.025269,693.226624 833.013489,700.331787 
	C833.011841,701.308899 833.078003,702.526062 831.701538,702.516846 
	C830.459534,702.508606 830.227112,701.446289 830.228821,700.378052 
	C830.233093,697.734314 830.225891,695.090515 830.223267,691.956482 
z"/>
<path fill="#1C1C1C" opacity="1.000000" stroke="none" 
	d="
M831.019165,670.748047 
	C829.670837,669.414307 829.598206,668.279907 830.989380,667.371155 
	C831.782227,666.853210 832.631958,667.126160 832.986328,667.950623 
	C833.672668,669.547791 833.455322,670.801636 831.019165,670.748047 
z"/>
<path fill="#F8F8F8" opacity="1.000000" stroke="none" 
	d="
M755.270752,562.228943 
	C759.499939,564.523254 761.687622,567.757812 760.737915,572.184631 
	C759.961487,575.803772 757.575195,578.412720 753.651733,578.954773 
	C749.606384,579.513550 746.493164,577.896606 744.503601,574.348267 
	C742.898865,571.486328 743.204529,568.619324 744.910278,565.868347 
	C747.272095,562.059204 750.827820,561.407654 755.270752,562.228943 
z"/>
<path fill="#F8F8F8" opacity="1.000000" stroke="none" 
	d="
M625.299194,574.230713 
	C624.221802,569.267456 625.524109,565.374939 629.761536,563.337646 
	C633.203430,561.682861 636.964233,561.956238 639.865784,564.965942 
	C642.340393,567.532776 643.392883,570.621399 642.018188,574.111023 
	C640.706116,577.441650 638.294739,579.577148 634.636902,579.999268 
	C630.248840,580.505615 627.351196,578.384888 625.299194,574.230713 
z"/>
<path fill="#F7F7F7" opacity="1.000000" stroke="none" 
	d="
M687.594788,578.692505 
	C683.845764,575.722656 682.151245,572.422302 683.957764,567.999329 
	C685.528748,564.153015 688.581421,562.271667 692.524536,562.351807 
	C696.300354,562.428589 699.088318,564.460999 700.468567,568.143921 
	C701.780457,571.644226 700.962524,574.744019 698.466675,577.329468 
	C695.417664,580.488037 691.779785,580.680664 687.594788,578.692505 
z"/>
<path fill="#F7F7F7" opacity="1.000000" stroke="none" 
	d="
M522.021851,562.896912 
	C528.397095,561.846985 532.108398,563.950073 533.542053,569.149658 
	C534.634888,573.113037 532.276917,577.706604 528.320374,579.322388 
	C523.960083,581.103027 519.136841,579.235901 516.913879,574.906738 
	C514.671326,570.539368 516.355408,566.289856 522.021851,562.896912 
z"/>
<path fill="#F0F0F0" opacity="1.000000" stroke="none" 
	d="
M807.444702,562.330444 
	C810.594421,559.698120 813.861694,558.889160 817.454956,559.936707 
	C819.718933,560.596619 821.152222,562.124084 821.085449,564.646912 
	C821.012329,567.412476 818.776123,567.666199 816.861755,567.853577 
	C814.398926,568.094604 811.889709,568.042358 809.413269,567.897644 
	C807.873291,567.807678 805.675293,568.878906 804.922852,567.183655 
	C804.111023,565.354919 805.941895,563.904785 807.444702,562.330444 
z"/>
<path fill="#F8F8F8" opacity="1.000000" stroke="none" 
	d="
M973.002869,580.361206 
	C966.489441,581.472656 961.674561,579.073425 960.159485,574.296204 
	C958.648132,569.530884 960.983582,564.137268 965.406433,562.178833 
	C970.247681,560.035156 975.875122,561.650818 978.518677,565.943481 
	C981.746399,571.184814 979.774963,576.642517 973.002869,580.361206 
z"/>
<path fill="#F7F7F7" opacity="1.000000" stroke="none" 
	d="
M855.401672,710.807556 
	C851.863342,712.278809 848.525269,712.353455 845.253357,711.779846 
	C842.671570,711.327271 840.586365,709.893372 840.651672,706.807007 
	C840.712952,703.909607 842.197266,702.314392 845.118469,701.797729 
	C847.759399,701.330811 850.378113,701.096863 853.018311,701.496216 
	C855.096375,701.810608 857.491638,701.708740 858.350464,704.313049 
	C859.278076,707.125793 857.968262,709.083740 855.401672,710.807556 
z"/>
<path fill="#F7F7F7" opacity="1.000000" stroke="none" 
	d="
M846.717407,678.572144 
	C850.390747,677.830627 853.376953,678.057495 855.145081,681.498474 
	C856.402161,683.944763 856.197693,686.355774 854.620239,688.506165 
	C852.833252,690.942139 850.170105,691.143311 847.452271,690.661560 
	C844.937927,690.215881 843.238708,688.754883 842.891052,686.130188 
	C842.471680,682.963867 843.011841,680.167358 846.717407,678.572144 
z"/>
<path fill="#FBFBFB" opacity="1.000000" stroke="none" 
	d="
M818.772095,672.430908 
	C822.225891,679.722168 819.344055,684.677246 811.896301,685.026123 
	C804.710449,685.362732 804.710449,685.362732 804.710083,678.206055 
	C804.709656,669.531494 806.787598,668.036438 815.428650,670.597778 
	C816.510681,670.918457 817.488342,671.591370 818.772095,672.430908 
z"/>
<path fill="#FBFBFB" opacity="1.000000" stroke="none" 
	d="
M927.712769,672.134644 
	C931.661133,668.171021 935.987183,669.843445 939.882202,671.310486 
	C943.240662,672.575562 943.776733,675.922241 943.257202,679.355652 
	C942.610291,683.631775 939.697876,685.026611 935.908752,685.446045 
	C935.248840,685.519104 934.601746,685.705017 933.942078,685.782837 
	C927.709045,686.517883 927.708008,686.514404 927.704834,680.106262 
	C927.703613,677.610168 927.705750,675.114014 927.712769,672.134644 
z"/>
<path fill="#F7F7F7" opacity="1.000000" stroke="none" 
	d="
M977.563171,697.306030 
	C975.537170,700.283813 972.750488,700.795654 969.910706,700.767700 
	C967.463806,700.743713 965.383179,699.798706 964.840332,696.982666 
	C964.334900,694.360657 965.331421,692.428528 967.602783,691.202087 
	C970.619873,689.572937 974.018188,689.860046 977.279785,689.487610 
	C979.072754,689.282837 978.933167,690.586304 979.010254,691.746948 
	C979.134766,693.618713 978.717957,695.351440 977.563171,697.306030 
z"/>
<path fill="#F0F0F0" opacity="1.000000" stroke="none" 
	d="
M640.252014,695.948853 
	C642.078918,691.313599 649.947266,687.821167 653.826904,689.474426 
	C654.575256,689.793457 654.694702,690.290283 654.867554,690.931519 
	C655.716003,694.078613 653.040466,698.940735 649.755371,700.161743 
	C645.090088,701.895752 642.326843,700.778259 640.252014,695.948853 
z"/>
<path fill="#F0F0F0" opacity="1.000000" stroke="none" 
	d="
M715.611694,678.386353 
	C718.030334,678.978271 719.543396,680.153320 720.515564,682.030457 
	C722.784363,686.411499 721.964783,687.776550 717.026367,687.801208 
	C714.874268,687.812012 712.710876,687.937134 710.573730,687.757751 
	C709.054504,687.630249 706.967346,688.797974 706.115906,686.935364 
	C705.308655,685.169495 706.622375,683.444214 707.556152,681.896240 
	C709.299316,679.006348 712.124939,678.329956 715.611694,678.386353 
z"/>
<path fill="#F0F0F0" opacity="1.000000" stroke="none" 
	d="
M1025.896484,678.992676 
	C1027.069824,679.926758 1028.089600,680.607544 1028.658691,681.558167 
	C1031.392212,686.123840 1030.399292,687.804626 1025.089722,687.814026 
	C1023.272888,687.817261 1021.438232,687.972900 1019.644287,687.770325 
	C1017.829224,687.565369 1015.122925,688.943298 1014.389526,686.853394 
	C1013.637390,684.709961 1015.253418,682.342529 1016.890137,680.711548 
	C1019.282349,678.327759 1022.261597,677.647217 1025.896484,678.992676 
z"/>
<path fill="#F8F8F8" opacity="1.000000" stroke="none" 
	d="
M771.623291,700.709473 
	C764.181519,700.265076 761.249695,696.932190 761.222473,689.377136 
	C761.199463,682.969604 764.251160,678.980286 769.677979,678.437622 
	C772.071167,678.198242 774.286133,678.729126 776.111938,680.429688 
	C781.860291,685.783691 779.402344,697.893372 771.623291,700.709473 
z"/>
<path fill="#F8F8F8" opacity="1.000000" stroke="none" 
	d="
M526.200256,700.067200 
	C520.583557,695.659790 519.212158,687.733215 522.744141,682.107422 
	C525.160461,678.258789 531.353394,677.135803 535.065491,679.873169 
	C538.779175,682.611755 540.158630,690.845764 537.534851,696.049438 
	C535.213318,700.653625 531.295776,701.640198 526.200256,700.067200 
z"/>
</svg>